# xmcd
# 
# Track frame offsets:
#     150
#     84017
#     145189
#     208755
# 
# Disc length: 4006
# 
# Revision: 0
# Processed by: cddbd v1.5.2PL0 Copyright (c) Steve Scherf et al.
# Submitted via: fre:ac v1.0.17
# 
DISCID=2c0fa404
DTITLE=Stephen King - 11.23.63 Disk 19
DYEAR=2011
DGENRE=Audiobook
TTITLE0=19.01
TTITLE1=19.02
TTITLE2=19.03
TTITLE3=19.04
EXTD=
EXTT0=
EXTT1=
EXTT2=
EXTT3=
PLAYORDER=
